<svg xmlns="http://www.w3.org/2000/svg" width="20" height="21" viewBox="0 0 20 21" fill="none">
<g clip-path="url(#clip0_280_23772)">
<rect y="0.0424805" width="20" height="20" rx="10" fill="#3A7968"/>
<path d="M9.56206 12.464C9.56206 12.048 9.6314 11.6853 9.77006 11.376C9.90873 11.0667 10.0794 10.7893 10.2821 10.544C10.4954 10.2987 10.7247 10.0747 10.9701 9.872C11.2154 9.65867 11.4447 9.45067 11.6581 9.248C11.8714 9.03467 12.0421 8.81067 12.1701 8.576C12.3087 8.34133 12.3781 8.06933 12.3781 7.76C12.3781 7.248 12.1754 6.832 11.7701 6.512C11.3647 6.192 10.8047 6.032 10.0901 6.032C9.45006 6.032 8.8954 6.13867 8.42606 6.352C7.95673 6.56533 7.55673 6.88 7.22606 7.296L6.05806 6.464C6.50606 5.89867 7.07673 5.46133 7.77006 5.152C8.4634 4.832 9.27406 4.672 10.2021 4.672C10.9701 4.672 11.6367 4.78933 12.2021 5.024C12.7674 5.248 13.2047 5.57333 13.5141 6C13.8341 6.416 13.9941 6.92267 13.9941 7.52C13.9941 7.968 13.9247 8.352 13.7861 8.672C13.6474 8.992 13.4714 9.27467 13.2581 9.52C13.0447 9.76533 12.8154 9.99467 12.5701 10.208C12.3354 10.4213 12.1114 10.6347 11.8981 10.848C11.6847 11.0613 11.5087 11.296 11.3701 11.552C11.2314 11.808 11.1621 12.112 11.1621 12.464H9.56206ZM10.3781 16.096C10.0794 16.096 9.82873 15.9947 9.62606 15.792C9.43406 15.5893 9.33806 15.3493 9.33806 15.072C9.33806 14.7733 9.43406 14.528 9.62606 14.336C9.82873 14.144 10.0794 14.048 10.3781 14.048C10.6767 14.048 10.9221 14.144 11.1141 14.336C11.3061 14.528 11.4021 14.7733 11.4021 15.072C11.4021 15.3493 11.3061 15.5893 11.1141 15.792C10.9221 15.9947 10.6767 16.096 10.3781 16.096Z" fill="white"/>
</g>
<defs>
<clipPath id="clip0_280_23772">
<rect y="0.0424805" width="20" height="20" rx="10" fill="white"/>
</clipPath>
</defs>
</svg>