<svg xmlns="http://www.w3.org/2000/svg" width="16" height="17" viewBox="0 0 16 17" fill="none">
<path d="M11.6417 4.09242C12.0134 4.32474 12.1264 4.81438 11.894 5.18607L7.92585 11.5352C7.78709 11.7571 7.54789 11.8965 7.28646 11.9075C7.02503 11.9187 6.77487 11.8002 6.61789 11.5909L4.2369 8.4162C3.97391 8.06557 4.04498 7.56811 4.39563 7.30509C4.74629 7.04213 5.24376 7.1132 5.50675 7.46382L7.1932 9.71247L10.548 4.34481C10.7803 3.97311 11.2699 3.86011 11.6417 4.09242Z" fill="#3A7968"/>
<path fill-rule="evenodd" clip-rule="evenodd" d="M0.904297 5.87624C0.904297 4.09829 0.904297 3.20931 1.25031 2.53024C1.55468 1.93289 2.04033 1.44725 2.63767 1.14288C3.31675 0.796875 4.20573 0.796875 5.98367 0.796875H10.1107C11.8886 0.796875 12.7775 0.796875 13.4567 1.14288C14.054 1.44725 14.5396 1.93289 14.844 2.53024C15.19 3.20931 15.19 4.09829 15.19 5.87624V7.18624C15.19 9.05501 15.19 9.98929 14.9456 10.8445C14.7153 11.6504 14.3278 12.4027 13.8052 13.0582C13.2508 13.7536 12.49 14.296 10.9684 15.3808C9.93381 16.1184 9.41648 16.4872 8.8541 16.635C8.32505 16.7741 7.76922 16.7741 7.24025 16.635C6.67779 16.4872 6.16051 16.1184 5.12594 15.3808C3.60431 14.296 2.84349 13.7536 2.28906 13.0582C1.76653 12.4027 1.37895 11.6504 1.14866 10.8445C0.904297 9.98929 0.904297 9.05501 0.904297 7.18624V5.87624ZM13.6027 5.87624V7.18624C13.6027 9.14739 13.5884 9.81739 13.4194 10.4083C13.2468 11.0128 12.956 11.577 12.5641 12.0686C12.181 12.5492 11.6438 12.9498 10.047 14.0883C8.90619 14.9017 8.66381 15.0439 8.45057 15.0999C8.1861 15.1693 7.90819 15.1693 7.64374 15.0999C7.43049 15.0439 7.18811 14.9017 6.0474 14.0883C4.45047 12.9498 3.91335 12.5492 3.53017 12.0686C3.13828 11.577 2.84758 11.0128 2.67487 10.4083C2.50598 9.81739 2.4916 9.14739 2.4916 7.18624V5.87624C2.4916 4.96107 2.49284 4.37016 2.52958 3.92042C2.56482 3.48921 2.62462 3.32934 2.66461 3.25086C2.81678 2.95218 3.05961 2.70936 3.35829 2.55718C3.43677 2.51719 3.59664 2.45739 4.02785 2.42215C4.47759 2.38541 5.0685 2.38417 5.98367 2.38417H10.1107C11.0258 2.38417 11.6168 2.38541 12.0665 2.42215C12.4977 2.45739 12.6575 2.51719 12.736 2.55718C13.0347 2.70936 13.2775 2.95218 13.4297 3.25086C13.4697 3.32934 13.5295 3.48921 13.5647 3.92042C13.6014 4.37017 13.6027 4.96107 13.6027 5.87624Z" fill="#3A7968"/>
</svg>