<svg xmlns="http://www.w3.org/2000/svg" width="14" height="13" viewBox="0 0 14 13" fill="none">
  <path fill-rule="evenodd" clip-rule="evenodd" d="M7.58215 11.5726C7.29378 11.4233 6.95087 11.4233 6.6625 11.5726L4.13914 12.8792C3.40464 13.2595 2.55225 12.6345 2.69414 11.8196L3.16863 9.09486C3.2257 8.76708 3.11602 8.43238 2.87601 8.20195L0.877259 6.28299C0.276125 5.70585 0.603212 4.68978 1.42814 4.57172L4.21727 4.17254C4.54171 4.1261 4.82281 3.92363 4.96964 3.63061L6.22828 1.11872C6.59709 0.382695 7.64756 0.382695 8.01637 1.11872L9.27501 3.63061C9.42184 3.92363 9.70293 4.1261 10.0274 4.17254L12.8165 4.57172C13.6414 4.68978 13.9685 5.70585 13.3674 6.28299L11.3686 8.20195C11.1286 8.43238 11.0189 8.76708 11.076 9.09486L11.5505 11.8196C11.6924 12.6345 10.84 13.2595 10.1055 12.8792L7.58215 11.5726Z" fill="#FCC84D"/>
</svg>